<?xml version="1.0" encoding="UTF-8"?>
<svg version="1.1" xmlns="http://www.w3.org/2000/svg" width="267" height="315">
<path d="M0 0 C88.11 0 176.22 0 267 0 C267 103.95 267 207.9 267 315 C178.89 315 90.78 315 0 315 C0 211.05 0 107.1 0 0 Z " fill="#FAFAFB" transform="translate(0,0)"/>
<path d="M0 0 C88.11 0 176.22 0 267 0 C267 103.95 267 207.9 267 315 C178.89 315 90.78 315 0 315 C0 211.05 0 107.1 0 0 Z M36.6875 32.3125 C36.21699219 32.86550781 35.74648438 33.41851562 35.26171875 33.98828125 C31.77450057 39.54839692 31.71005863 45.06029492 31.73257446 51.39938354 C31.72804335 52.33808261 31.72351224 53.27678168 31.71884382 54.24392617 C31.70619702 57.38516117 31.70782038 60.52622285 31.70947266 63.66748047 C31.70348763 65.92136864 31.69668215 68.17525476 31.68911743 70.42913818 C31.67144871 76.54897054 31.66676171 82.66874696 31.66548586 88.78860235 C31.66358633 93.89799024 31.65622827 99.0073651 31.64914167 104.11674798 C31.63378715 115.48270419 31.62780405 126.84862578 31.62915237 138.21458887 C31.62923228 138.89610364 31.6293122 139.57761842 31.62939453 140.27978516 C31.62947629 140.96213506 31.62955805 141.64448497 31.62964229 142.34751214 C31.63045521 153.40601147 31.61131438 164.46437459 31.5831178 175.52283452 C31.55437238 186.8864819 31.54094446 198.25004221 31.54230535 209.61373436 C31.54281531 215.99004789 31.537113 222.36620723 31.51594925 228.74248886 C31.49658831 234.73927852 31.49642798 240.73576654 31.51098251 246.73256683 C31.51307427 248.93196935 31.50834793 251.13139065 31.4962616 253.33076096 C31.48081571 256.33641144 31.49011343 259.34102095 31.50552368 262.34664917 C31.49523656 263.21417183 31.48494943 264.08169449 31.47435057 264.97550571 C31.54994138 271.66054478 33.33796852 276.84155239 37.67578125 281.98828125 C38.21589844 282.42527344 38.75601563 282.86226563 39.3125 283.3125 C39.84488281 283.76238281 40.37726562 284.21226562 40.92578125 284.67578125 C46.35958338 288.14481877 50.81981262 289.3750342 57.25285339 289.40113831 C57.94865503 289.40793498 58.64445667 289.41473164 59.3613432 289.42173427 C61.67488863 289.44060727 63.98790017 289.43827597 66.30151367 289.43579102 C67.96779047 289.44477494 69.63406105 289.45498465 71.30032349 289.46632385 C75.8150671 289.49276788 80.32964 289.49985507 84.84445357 289.50177121 C87.66965416 289.50390752 90.49481172 289.51031964 93.3200016 289.51826286 C103.18935513 289.54600091 113.0585873 289.5582707 122.92797852 289.5559082 C132.10588472 289.55410772 141.28326088 289.58573155 150.46103305 289.63313919 C158.35771219 289.67246548 166.25421884 289.68845567 174.15099508 289.68654197 C178.85975088 289.68577975 183.56803568 289.69418045 188.27669334 289.72607613 C192.71012776 289.75528842 197.14264648 289.75524399 201.57611465 289.73352623 C203.19493904 289.73040913 204.81382213 289.73735534 206.43254662 289.7556076 C216.29592176 289.85953996 224.73819333 289.06089669 233 283 C238.31887973 277.36730932 239.24596838 272.0382704 239.28761292 264.46084595 C239.29758463 263.35293845 239.29758463 263.35293845 239.30775779 262.22264898 C239.32737343 259.75858381 239.33281887 257.29470083 239.33813477 254.83056641 C239.34903529 253.05942819 239.36070758 251.28829459 239.37309265 249.51716614 C239.40354804 244.71342814 239.42060298 239.90973797 239.43330884 235.10592318 C239.44140226 232.10304194 239.45158298 229.10017433 239.46232414 226.09730148 C239.49502475 216.69683401 239.51893369 207.29639981 239.531138 197.8958832 C239.54539951 187.05313754 239.58930252 176.21104202 239.65863949 165.3685118 C239.71042893 156.98021565 239.73531166 148.59210442 239.73996013 140.20365083 C239.74335669 135.19646125 239.75819098 130.18992996 239.80124092 125.18291092 C239.84103106 120.47286186 239.84738054 115.76392968 239.82834053 111.05376244 C239.82707586 109.32842161 239.8377208 107.60302327 239.86135483 105.87784386 C240.29153485 95.39183178 240.29153485 95.39183178 235.81732178 86.28779602 C234.5739759 85.15896341 233.30242227 84.06012653 232 83 C231.00373322 81.98405659 230.01824981 80.9573865 229.04570007 79.91871643 C228.06510707 78.93233779 227.08193724 77.94851535 226.09643555 76.96704102 C225.55242599 76.42127914 225.00841644 75.87551727 224.44792175 75.31321716 C222.67999784 73.54095275 220.90851461 71.77229906 219.13671875 70.00390625 C217.89583494 68.76234774 216.65509952 67.52064091 215.414505 66.27879333 C212.82995841 63.69278088 210.24363273 61.1085649 207.65600586 58.52563477 C204.33588776 55.21124931 201.02032784 51.89234583 197.70605755 48.57211399 C195.15231976 46.01477104 192.59621554 43.45980413 190.03937721 40.90556145 C188.81499608 39.68184785 187.59135861 38.45738971 186.36847496 37.23217964 C184.66691696 35.52809202 182.96220408 33.82722564 181.2565918 32.12719727 C180.75113831 31.61971954 180.24568481 31.11224182 179.72491455 30.58938599 C175.96644682 26.85376782 174.24380227 25.87645796 168.98518372 25.85955811 C167.92395294 25.85384796 166.86272217 25.84813782 165.76933289 25.84225464 C164.59997696 25.84113678 163.43062103 25.84001892 162.22583008 25.83886719 C160.99807861 25.83390228 159.77032715 25.82893738 158.50537109 25.82382202 C155.13114428 25.81169847 151.75697958 25.80425083 148.38273835 25.79981136 C146.27372294 25.79688082 144.16471297 25.79277595 142.0557003 25.78830719 C135.45464249 25.77462715 128.85359711 25.76496415 122.2525261 25.7611053 C114.63775966 25.75662935 107.02317314 25.73910527 99.40846139 25.7101047 C93.52045857 25.68846083 87.63250626 25.6783995 81.7444641 25.67706418 C78.2291931 25.67601767 74.71409112 25.6701435 71.19886208 25.65224457 C67.27289712 25.63264435 63.34715523 25.63706367 59.42114258 25.64355469 C58.26190781 25.6343399 57.10267303 25.62512512 55.90830994 25.6156311 C48.4038347 25.65449692 41.76486064 26.09094541 36.6875 32.3125 Z " fill="#FCFCFC" transform="translate(0,0)"/>
<path d="M0 0 C1.22672928 -0.0115361 2.45345856 -0.0230722 3.71736145 -0.03495789 C7.07079922 -0.06331859 10.42398841 -0.08245125 13.77750349 -0.09517407 C15.8758353 -0.10328037 17.97414788 -0.11346146 20.0724678 -0.12418938 C26.64734377 -0.15687092 33.22217245 -0.18078629 39.79711854 -0.19300324 C47.36971969 -0.20726055 54.94138925 -0.25115586 62.51368177 -0.32050472 C68.37970957 -0.37236363 74.24547296 -0.39718215 80.1117264 -0.40182537 C83.60996972 -0.40521528 87.10726869 -0.41994154 90.60526657 -0.46310616 C94.50928138 -0.51044285 98.41210532 -0.50172083 102.31640625 -0.48828125 C103.46576157 -0.51030609 104.61511688 -0.53233093 105.79930115 -0.55502319 C112.60786833 -0.47547002 116.26553821 0.53176199 121.07136154 5.44374752 C121.92089842 6.38146921 121.92089842 6.38146921 122.78759766 7.33813477 C123.80965823 8.32812501 124.83645738 9.31325672 125.86888123 10.29243469 C126.85525986 11.27302769 127.83908231 12.25619753 128.82055664 13.24169922 C129.36631851 13.78570877 129.91208038 14.32971832 130.47438049 14.89021301 C132.2466449 16.65813693 134.01529859 18.42962016 135.78369141 20.20141602 C137.02524991 21.44229982 138.26695674 22.68303525 139.50880432 23.92362976 C142.09481678 26.50817635 144.67903275 29.09450203 147.26196289 31.68212891 C150.57634835 35.002247 153.89525183 38.31780693 157.21548367 41.63207722 C159.77282661 44.185815 162.32779352 46.74191922 164.88203621 49.29875755 C166.10574981 50.52313869 167.33020794 51.74677616 168.55541801 52.96965981 C170.25950564 54.6712178 171.96037202 56.37593069 173.66040039 58.08154297 C174.16787811 58.58699646 174.67535583 59.09244995 175.19821167 59.61322021 C179.51616089 63.95758093 179.93635571 66.43009868 179.93476868 72.38954163 C179.93844536 73.12402336 179.94212205 73.8585051 179.94591016 74.61524385 C179.95696936 77.08936876 179.96079466 79.5634517 179.96459961 82.03759766 C179.97086275 83.80651992 179.97750942 85.57544086 179.98451233 87.34436035 C180.00194 92.16080373 180.01247967 96.97723716 180.02071786 101.79370427 C180.02586603 104.80326654 180.03194196 107.81282571 180.03822899 110.82238579 C180.05728907 120.23942374 180.07151645 129.65645383 180.07984096 139.07350737 C180.08960655 149.94155678 180.11590496 160.80940214 180.15634185 171.67737967 C180.1865226 180.07749289 180.20131184 188.47754771 180.20462197 196.8777141 C180.20697092 201.8943123 180.21591063 206.91069274 180.24108315 211.92723274 C180.26440201 216.65095815 180.26858174 221.37432303 180.25832176 226.09809113 C180.25782716 227.82782377 180.26412522 229.55757438 180.27787781 231.28725243 C180.42157873 250.43935477 180.42157873 250.43935477 173.60009766 257.65063477 C172.20791016 258.48594727 172.20791016 258.48594727 170.78759766 259.33813477 C170.23939834 259.67507827 169.69119902 260.01202177 169.1263876 260.35917568 C161.54446994 264.38496378 153.57359882 263.90881613 145.22729492 263.87158203 C143.55747722 263.87864867 141.88766592 263.8873968 140.21786499 263.89768982 C135.70330186 263.92011018 131.18909053 263.91726137 126.67449307 263.90836835 C122.89726115 263.90324274 119.12009442 263.91056376 115.34286922 263.91784042 C106.42814667 263.93481608 97.51359539 263.93129714 88.59887695 263.91455078 C79.41979866 263.89763016 70.24119597 263.91346844 61.06216961 263.94577366 C53.16377239 263.97251266 45.26552283 263.97973399 37.36708492 263.97125858 C32.65738709 263.96634212 27.94797531 263.96847542 23.23831367 263.9890461 C18.80819692 264.0074712 14.37876155 264.00136172 9.94868088 263.97684669 C8.32903186 263.97186044 6.7093303 263.97527145 5.08972359 263.98799515 C-4.78452449 264.05939255 -13.54720785 263.67096504 -21.13939571 256.52419376 C-26.73899427 250.5221507 -27.50740608 245.00046425 -27.47309875 237.05227661 C-27.4769243 236.1137264 -27.48074985 235.1751762 -27.48469132 234.20818508 C-27.49501467 231.06150335 -27.49103039 227.91500432 -27.48706055 224.76831055 C-27.4914074 222.51294791 -27.49659046 220.25758674 -27.50254822 218.00222778 C-27.51595269 211.87413351 -27.51651524 205.74610086 -27.51398492 199.61799479 C-27.51291614 194.50359311 -27.51779623 189.38920395 -27.52259034 184.27480495 C-27.53432554 171.51939558 -27.53345759 158.76403085 -27.52703353 146.00862192 C-27.52186533 134.93647379 -27.53311734 123.86441367 -27.55213175 112.79228295 C-27.57151415 101.41850515 -27.57947403 90.04478111 -27.5760085 78.67098224 C-27.57419441 72.28745063 -27.57684437 65.9039996 -27.59072304 59.52048111 C-27.60328631 53.51717895 -27.60137134 47.51405305 -27.58831215 41.51075363 C-27.58594352 39.30771068 -27.58869127 37.10465539 -27.59693527 34.90162659 C-27.60737999 31.8935327 -27.59931999 28.8860327 -27.58662415 25.87796021 C-27.59399843 25.00684259 -27.60137272 24.13572497 -27.60897046 23.23820984 C-27.54773942 16.33868229 -25.97218662 10.9040518 -21.39990234 5.52563477 C-20.93970703 4.96231445 -20.47951172 4.39899414 -20.00537109 3.81860352 C-14.38952294 -0.81844757 -6.8617275 0.02264686 0 0 Z M-11.4844265 15.30832291 C-13.84481293 19.44699581 -13.76332174 22.72916245 -13.70687866 27.41639709 C-13.71170749 28.33256268 -13.71653632 29.24872827 -13.72151148 30.19265646 C-13.73278634 33.26365578 -13.71546009 36.33382317 -13.69824219 39.40478516 C-13.70038794 41.60590338 -13.70426546 43.80702049 -13.70974731 46.00813293 C-13.71944813 51.987365 -13.70412832 57.96629888 -13.68384123 63.94549489 C-13.66628742 70.19766357 -13.66979497 76.44982281 -13.67056274 82.70201111 C-13.66868919 93.20096324 -13.65142512 103.69981865 -13.62402344 114.19873047 C-13.59584247 125.00181167 -13.58168222 135.80479169 -13.58300781 146.60791016 C-13.58308772 147.27342194 -13.58316764 147.93893371 -13.58324997 148.62461252 C-13.58333068 149.28897266 -13.58341139 149.9533328 -13.58349454 150.63782507 C-13.58480426 162.31341673 -13.57451066 173.98896947 -13.55791092 185.66454887 C-13.55084157 190.6377539 -13.5471839 195.61094432 -13.5461235 200.58415413 C-13.5441174 206.43723256 -13.5319304 212.29020435 -13.51179123 218.1432476 C-13.50593977 220.29432904 -13.50349079 222.44542275 -13.5046463 224.59651184 C-13.50562487 227.52674069 -13.49434453 230.45666902 -13.47982788 233.38685608 C-13.48292508 234.24336653 -13.48602229 235.09987699 -13.48921335 235.9823423 C-13.45621943 239.99939562 -13.27417591 242.87941644 -11.21240234 246.33813477 C-7.815755 248.80686219 -4.47578395 248.58959137 -0.38037109 248.59210205 C0.64957726 248.59678202 0.64957726 248.59678202 1.70033264 248.60155654 C4.00034172 248.6095317 6.30008662 248.60321487 8.60009766 248.59692383 C10.24935053 248.59963391 11.8986022 248.60319493 13.54785156 248.60754395 C18.0271094 248.61666821 22.5062752 248.61312353 26.98553467 248.60678577 C31.67086029 248.60172599 36.35617798 248.60641717 41.04150391 248.60955811 C48.9100079 248.61319781 56.77847436 248.60839853 64.64697266 248.59887695 C73.74696358 248.5879924 82.84686489 248.59151797 91.94685364 248.60252976 C99.75670642 248.61160251 107.5665322 248.61288798 115.37638855 248.60765243 C120.04228179 248.60453266 124.70813289 248.60412358 129.37402344 248.6107254 C133.76035767 248.61649804 138.14657623 248.61250346 142.53289795 248.60093689 C144.14377653 248.59828987 145.75466482 248.59905612 147.36553955 248.60346222 C149.56234708 248.60891748 151.75878265 248.60208399 153.95556641 248.59210205 C155.80057739 248.59097097 155.80057739 248.59097097 157.68286133 248.58981705 C160.65780204 248.34865651 162.33843239 247.99905722 164.78759766 246.33813477 C166.22894559 243.45543889 165.91026781 240.98012271 165.90785217 237.75765991 C165.9087066 237.07399782 165.90956102 236.39033572 165.91044134 235.6859566 C165.91209467 233.38428009 165.90657718 231.0826757 165.90112305 228.78100586 C165.90084112 227.1354116 165.90099902 225.48981721 165.90156555 223.84422302 C165.9018533 219.36720056 165.89596019 214.89020471 165.88899159 210.41318846 C165.88275433 205.73799492 165.88215396 201.06280082 165.88096619 196.38760376 C165.87785397 187.53013104 165.86964206 178.67267061 165.8596167 169.81520331 C165.84845216 159.73312552 165.84294425 149.65104715 165.83792126 139.56896472 C165.82745936 118.82534786 165.80986204 98.08174209 165.78759766 77.33813477 C164.52689453 77.32878906 163.26619141 77.31944336 161.96728516 77.30981445 C157.26299487 77.26976104 152.55934803 77.20395976 147.85546875 77.13061523 C145.82462874 77.10249442 143.79368108 77.08123591 141.76269531 77.06713867 C138.8329391 77.04558578 135.90446501 76.99887254 132.97509766 76.94750977 C132.07581543 76.94628113 131.1765332 76.94505249 130.25 76.94378662 C123.37106077 76.78611474 117.99017324 75.15739049 112.76416016 70.55688477 C112.31814453 69.98969727 111.87212891 69.42250977 111.41259766 68.83813477 C110.95111328 68.27094727 110.48962891 67.70375977 110.01416016 67.11938477 C107.5473463 63.53700541 106.53782933 60.85280714 106.46875 56.4777832 C106.44888031 55.51708923 106.42901062 54.55639526 106.40853882 53.56658936 C106.39698761 52.53729309 106.3854364 51.50799683 106.37353516 50.44750977 C106.35416901 49.3877594 106.33480286 48.32800903 106.31484985 47.23614502 C106.25510212 43.85355664 106.20868746 40.47093414 106.16259766 37.08813477 C106.1244135 34.79384915 106.08536151 32.49957779 106.04541016 30.20532227 C105.94940451 24.58305314 105.86434282 18.96069799 105.78759766 13.33813477 C90.86265055 13.22134447 75.93773886 13.13316783 61.0124321 13.07907391 C54.08235145 13.05328968 47.15255469 13.01813569 40.22265625 12.9609375 C33.53774349 12.90578767 26.8531869 12.87673165 20.16803741 12.86374855 C17.61466065 12.85449365 15.06130046 12.83642146 12.50804901 12.80948448 C8.93778783 12.77330825 5.36875413 12.7681849 1.79833984 12.77050781 C0.73738602 12.75253143 -0.32356781 12.73455505 -1.41667175 12.71603394 C-2.38979813 12.72290726 -3.3629245 12.72978058 -4.36553955 12.73686218 C-5.63208311 12.72994874 -5.63208311 12.72994874 -6.92421341 12.72289562 C-9.39806767 13.209556 -9.39806767 13.209556 -11.4844265 15.30832291 Z " fill="#191B1B" transform="translate(59.21240234375,25.661865234375)"/>
<path d="M0 0 C7.54872743 4.25575206 12.49577531 10.93980681 15.11328125 19.19140625 C15.27731517 21.87989443 15.34809886 24.44674496 15.30078125 27.12890625 C15.29981445 28.1643457 15.29981445 28.1643457 15.29882812 29.22070312 C15.27223532 32.33797111 15.14642952 35.07364842 14.29882812 38.0847168 C13.78073564 41.33545887 13.78073564 41.33545887 16.0793457 43.98388672 C17.02687286 44.94378055 17.9940631 45.8845273 18.9765625 46.80859375 C19.48374313 47.3106131 19.99092377 47.81263245 20.51347351 48.3298645 C21.58579436 49.38507226 22.66642756 50.43189033 23.75463867 51.47070312 C25.42531023 53.06595649 27.07057385 54.68421102 28.71289062 56.30859375 C29.75772928 57.33084492 30.80390888 58.3517277 31.8515625 59.37109375 C32.59542961 60.09750565 32.59542961 60.09750565 33.35432434 60.83859253 C35.8055933 63.44250352 35.8055933 63.44250352 39.11328125 64.19140625 C40.67976983 62.60403226 40.67976983 62.60403226 42.30078125 60.56640625 C50.79274797 50.66498447 50.79274797 50.66498447 56.17578125 49.56640625 C60.71535245 50.53227246 63.64182875 52.81805058 66.98828125 55.94140625 C68.68732404 59.33949183 68.8753847 62.52696577 68.11328125 66.19140625 C66.31425349 68.94201556 64.0565916 71.01223756 61.61328125 73.19140625 C60.99324219 73.77535156 60.37320313 74.35929687 59.734375 74.9609375 C58.21156665 76.39003457 56.66470189 77.79342281 55.11328125 79.19140625 C56.72552622 83.27150944 59.654328 85.95353412 62.7421875 88.9453125 C63.29188705 89.48743881 63.84158661 90.02956512 64.40794373 90.58811951 C66.15914936 92.31495124 67.91663209 94.03516966 69.67578125 95.75390625 C71.9953086 98.02030741 74.30819423 100.29318582 76.6171875 102.5703125 C77.15259659 103.08912491 77.68800568 103.60793732 78.23963928 104.14247131 C81.71575437 107.57209788 82.9907607 109.56800899 83.36328125 114.50390625 C82.97954862 120.16396253 80.9908121 123.60352816 76.98828125 127.50390625 C73.57693686 130.25032758 70.62946158 131.0336043 66.32421875 131.4765625 C60.48492421 130.72343794 56.69269018 125.94852544 52.88037109 121.8840332 C51.62847759 120.56950799 50.37629746 119.2552557 49.12387085 117.9412384 C48.46511333 117.24666849 47.80635582 116.55209858 47.12763596 115.83648109 C43.60900176 112.14070623 40.04996298 108.48411512 36.49609375 104.82226562 C31.98432983 100.17272729 27.48633506 95.51266175 23.04296875 90.79760742 C19.44167198 86.97830242 15.79450559 83.20849336 12.1130867 79.46642113 C10.72681473 78.04032593 9.35755413 76.59746799 8.007061 75.13744545 C0.00756689 66.2130562 0.00756689 66.2130562 -10.92230225 62.38021851 C-14.97445077 62.27857941 -18.91880471 62.63986707 -22.94123459 63.08862877 C-29.147543 63.41650024 -33.69481311 59.50484768 -38.19921875 55.75390625 C-44.9135807 49.49249729 -49.10172074 43.57444829 -49.63671875 34.19140625 C-49.7140625 33.01578125 -49.79140625 31.84015625 -49.87109375 30.62890625 C-49.88601835 27.34549463 -49.53312674 24.40385809 -48.88671875 21.19140625 C-42.59683749 22.78484283 -38.89332769 28.30402073 -34.85351562 33.04492188 C-31.26517431 36.99847793 -31.26517431 36.99847793 -26.30786133 38.4375 C-23.76972059 38.18436065 -21.37417038 37.74625864 -18.88671875 37.19140625 C-17.58734375 37.06765625 -16.28796875 36.94390625 -14.94921875 36.81640625 C-11.73752816 35.51108308 -11.73752816 35.51108308 -10.79296875 32.7890625 C-9.48907959 28.29185221 -8.39550799 23.88372685 -8.88671875 19.19140625 C-10.52378056 16.89875944 -10.52378056 16.89875944 -12.82421875 14.8359375 C-14.04238281 13.65547852 -14.04238281 13.65547852 -15.28515625 12.45117188 C-16.14367187 11.64357422 -17.0021875 10.83597656 -17.88671875 10.00390625 C-19.57835474 8.38974007 -21.26608104 6.77146314 -22.94921875 5.1484375 C-23.70332031 4.4366333 -24.45742187 3.7248291 -25.234375 2.99145508 C-26.88671875 1.19140625 -26.88671875 1.19140625 -26.88671875 -0.80859375 C-18.45628804 -4.76282954 -8.30313874 -3.90016501 0 0 Z " fill="#9446FB" transform="translate(120.88671875,82.80859375)"/>
<path d="M0 0 C21.33550016 -1.77646301 21.33550016 -1.77646301 26.9765625 2.37890625 C29.7535334 4.94925088 32.01673194 7.77052193 34 11 C34 11.66 34 12.32 34 13 C33.113125 13.4125 32.22625 13.825 31.3125 14.25 C25.62869308 17.25276592 21.00746261 20.66795039 19 27 C18.04656567 34.42442844 17.85251062 41.28337347 22.5 47.44921875 C27.28242802 52.39355189 31.96770386 54.14902224 38.6875 54.3125 C44.34553002 54.25776694 48.43208801 53.39551812 53 50 C56.19706175 46.71653118 58.07427633 43.1403059 60 39 C62.93879484 40.35236577 65.29232911 41.89942659 67.75 44 C68.36359375 44.515625 68.9771875 45.03125 69.609375 45.5625 C71 47 71 47 71 49 C71.88993652 49.400979 71.88993652 49.400979 72.79785156 49.81005859 C75.02933245 51.01584993 76.4664799 52.2358095 78.234375 54.0390625 C78.80800781 54.61914062 79.38164062 55.19921875 79.97265625 55.796875 C80.55917969 56.40015625 81.14570313 57.0034375 81.75 57.625 C82.35199219 58.23601562 82.95398438 58.84703125 83.57421875 59.4765625 C85.05405305 60.97988624 86.52764676 62.48934856 88 64 C86.46986989 67.55939356 84.36373709 70.02831385 81.6875 72.8125 C80.92824219 73.62332031 80.16898437 74.43414062 79.38671875 75.26953125 C77 77 77 77 74.42578125 76.89453125 C72.19986971 76.07370397 70.4581145 75.19580365 68.5 73.875 C65.27493233 71.76169204 65.27493233 71.76169204 62.375 72.125 C61.59125 72.41375 60.8075 72.7025 60 73 C59.17371094 73.19078125 58.34742188 73.3815625 57.49609375 73.578125 C54.63399055 74.8623269 54.63399055 74.8623269 53.63671875 78.4765625 C53.29500344 79.85333916 52.98368952 81.23771665 52.6875 82.625 C52.130625 85.05875 51.57375 87.4925 51 90 C44.4 90 37.8 90 31 90 C30.46375 88.081875 29.9275 86.16375 29.375 84.1875 C27.75816101 79.24466436 27.75816101 79.24466436 24.0625 75.6875 C18.33420329 74.40155584 14.85374176 76.45032651 9.96484375 79.2578125 C7.37989246 80.23423545 6.53297001 80.13095709 4 79 C1.93231815 77.30022292 0.07371853 75.62886007 -1.8125 73.75 C-2.5849707 73.03263672 -2.5849707 73.03263672 -3.37304688 72.30078125 C-4.83203125 70.859375 -4.83203125 70.859375 -7 68 C-6.98879689 64.23015379 -5.59575127 62.19627764 -3.3125 59.3125 C-1.22717624 56.03556267 -0.53407739 53.71041655 -0.8125 49.8125 C-1.31972786 47.18989892 -1.31972786 47.18989892 -3 45 C-7.51956815 42.60921395 -12.08640159 41.33555456 -17 40 C-18 39 -18 39 -18.11352539 36.86694336 C-18.10828857 35.95050049 -18.10305176 35.03405762 -18.09765625 34.08984375 C-18.09443359 33.10048828 -18.09121094 32.11113281 -18.08789062 31.09179688 C-18.07951172 30.05087891 -18.07113281 29.00996094 -18.0625 27.9375 C-18.05798828 26.89271484 -18.05347656 25.84792969 -18.04882812 24.77148438 C-18.03699913 22.1809334 -18.02051689 19.59049441 -18 17 C-12.35880241 15.34041406 -6.77037662 14.10664757 -1 13 C-0.67 8.71 -0.34 4.42 0 0 Z " fill="#9547FB" transform="translate(91,155)"/>
<path d="M0 0 C4.83868612 4.03591945 9.40489769 8.25663337 13.8515625 12.71875 C14.4734848 13.33971558 15.0954071 13.96068115 15.73617554 14.60046387 C17.03986338 15.90347617 18.34230922 17.20773222 19.64355469 18.51318359 C21.6232314 20.49822661 23.60820359 22.47786135 25.59375 24.45703125 C26.86750831 25.73145027 28.14095643 27.00617942 29.4140625 28.28125 C30.29392319 29.15807434 30.29392319 29.15807434 31.19155884 30.0526123 C34.67305266 33.55378624 37.89315429 37.16166175 41 41 C36.3918813 41.07436755 31.78411486 41.12870394 27.17553711 41.16479492 C25.60906893 41.17984622 24.04264264 41.20029207 22.47631836 41.22631836 C20.21978394 41.26286433 17.96380847 41.27976261 15.70703125 41.29296875 C15.01100296 41.30845261 14.31497467 41.32393646 13.59785461 41.33988953 C9.20035505 41.34139859 6.43228921 40.79179783 3 38 C-0.2669927 33.9834972 -0.40390405 30.27971787 -0.29296875 25.29296875 C-0.28872391 24.56757401 -0.28447906 23.84217926 -0.28010559 23.09480286 C-0.26339543 20.79198109 -0.2257596 18.49005447 -0.1875 16.1875 C-0.17244316 14.6204554 -0.1587565 13.053397 -0.14648438 11.48632812 C-0.11351731 7.65721043 -0.06178992 3.82875666 0 0 Z " fill="#F6F6F6" transform="translate(178,49)"/>
</svg>
